:SAMPLES-PER-SECOND 30
:FULLY-SPECIFIED
:DEGREES
169
root  -2.84763 40.9866 -0.719417 176.58 -74.1529 -175.591
RightUpLeg  0.920515 0.340439 1.48617
RightLeg  -4.01934 -9.20491 2.29337
RightFoot  2.56907 -0.0707031 0.72337
RightToes  -3.10678e-008 1.75238e-005 3.56266e-009
Spine  7.60735 -4.30069 -7.00178
Spine1  -8.3293 -5.50419 9.17509
HEad  -7.78078 4.327 4.80844
LeftShoulder1  1.04194 -0.822156 -17.4283
LeftArm  -13.4817 0.487858 -30.0673
LeftForeArm  105.77 -79.692 -104.014
LeftHand  -0.615635 -3.64456 8.16483
RightShoulder  0.456949 -1.19193 12.8786
RightArm  -20.6339 6.28729 23.9635
RightForeArm  55.0932 78.2437 62.3713
RightHand  -0.315822 7.83531 -3.14037
LeftUpLeg  4.12901 2.87415 4.15084
LeftLeg  -3.75465 30.9063 -2.28267
LeftFoot  0.713163 0.440453 -4.19971
LeftToes  4.7643e-008 1.47522e-008 1.32869e-009
170
root  -2.82525 40.985 -0.752903 176.47 -74.7541 -175.722
RightUpLeg  1.16894 0.187418 1.43199
RightLeg  -3.96065 -9.65254 2.36861
RightFoot  2.47192 -0.0519799 0.568335
RightToes  -3.10678e-008 1.75238e-005 3.56266e-009
Spine  7.3849 -4.08108 -6.42165
Spine1  -7.70757 -5.23214 8.40259
HEad  -7.54228 4.98509 4.59314
LeftShoulder1  1.06999 -0.923302 -17.4991
LeftArm  -12.8977 1.3108 -30.8869
LeftForeArm  107.936 -79.5992 -106.073
LeftHand  -0.647766 -3.79945 8.44912
RightShoulder  0.519796 -0.893247 13.0336
RightArm  -20.7872 7.76406 24.579
RightForeArm  52.6043 77.8701 58.4561
RightHand  -0.135191 8.17548 -1.53262
LeftUpLeg  4.22492 2.78776 4.11276
LeftLeg  -3.63728 30.4101 -2.10874
LeftFoot  0.744023 0.447439 -4.27006
LeftToes  4.7643e-008 1.47522e-008 1.32869e-009
171
root  -2.81247 40.9823 -0.776266 176.424 -74.9021 -175.916
RightUpLeg  1.31671 0.18947 1.45204
RightLeg  -3.74182 -9.80411 2.26925
RightFoot  2.31463 -0.0401829 0.467297
RightToes  -3.10678e-008 1.75238e-005 3.56266e-009
Spine  6.98073 -3.61142 -5.85765
Spine1  -6.83279 -4.74695 7.9136
HEad  -7.27273 5.38252 4.21621
LeftShoulder1  1.21646 -1.37851 -18.3364
LeftArm  -11.5212 2.67993 -30.9647
LeftForeArm  109.244 -79.4804 -107.857
LeftHand  -0.641745 -3.36386 8.7563
RightShoulder  0.51754 -0.876328 12.7536
RightArm  -20.2481 10.4426 25.66
RightForeArm  51.62 77.7222 57.2644
RightHand  -0.14982 8.03742 -1.66975
LeftUpLeg  4.40089 2.83409 4.12746
LeftLeg  -3.51721 30.2302 -2.07031
LeftFoot  0.716923 0.457601 -4.38215
LeftToes  4.7643e-008 1.47522e-008 1.32869e-009
172
root  -2.80731 40.9747 -0.791476 176.17 -74.7222 -175.971
RightUpLeg  1.53621 0.274643 1.55916
RightLeg  -3.53293 -9.75538 2.11662
RightFoot  2.19023 -0.0204755 0.29858
RightToes  -3.10678e-008 1.75238e-005 3.56266e-009
Spine  6.0896 -3.41537 -4.45557
Spine1  -5.47525 -4.36305 6.07444
HEad  -6.78174 5.763 3.87189
LeftShoulder1  1.22218 -1.43576 -18.1422
LeftArm  -9.18368 4.15867 -31.5795
LeftForeArm  108.318 -79.6222 -106.034
LeftHand  -0.647343 -3.6774 8.5437
RightShoulder  0.660721 -0.298502 13.8008
RightArm  -19.5824 14.9049 26.2078
RightForeArm  50.6608 77.4277 54.502
RightHand  -0.142266 8.243 -1.58607
LeftUpLeg  4.68378 2.93777 4.19037
LeftLeg  -3.31444 30.2772 -1.99386
LeftFoot  0.577373 0.469522 -4.52738
LeftToes  4.7643e-008 1.47522e-008 1.32869e-009
173
root  -2.80388 40.9689 -0.800281 176.065 -74.4024 -176.105
RightUpLeg  1.64263 0.270584 1.58424
RightLeg  -3.25202 -9.38408 2.01326
RightFoot  2.07599 -0.012271 0.224837
RightToes  -3.10678e-008 1.75238e-005 3.56266e-009
Spine  5.2676 -3.17076 -3.29524
Spine1  -4.28534 -3.9981 4.95974
HEad  -6.19833 6.00548 3.3598
LeftShoulder1  1.23654 -1.47652 -18.2319
LeftArm  -5.96155 5.68358 -32.2394
LeftForeArm  105.887 -79.7383 -103.559
LeftHand  -0.657921 -3.61391 8.74049
RightShoulder  0.75283 0.161225 13.6879
RightArm  -18.2335 20.7599 28.6232
RightForeArm  50.448 77.255 52.928
RightHand  -0.301565 8.42843 -2.9101
LeftUpLeg  4.94723 3.02036 4.21782
LeftLeg  -3.20222 30.5048 -1.98266
LeftFoot  0.468312 0.475499 -4.59698
LeftToes  4.7643e-008 1.47522e-008 1.32869e-009
174
root  -2.78254 40.9627 -0.813976 176.223 -74.2254 -176.575
RightUpLeg  1.80987 0.192444 1.51939
RightLeg  -2.99845 -9.13411 1.91225
RightFoot  1.92358 -0.00986452 0.197567
RightToes  -3.10678e-008 1.75238e-005 3.56266e-009
Spine  4.95864 -2.96439 -2.11157
Spine1  -3.55954 -3.60928 3.56192
HEad  -5.29274 6.45979 3.32369
LeftShoulder1  1.35412 -1.84006 -18.7859
LeftArm  -3.29263 6.55118 -32.5929
LeftForeArm  104.281 -79.9012 -100.738
LeftHand  -0.652832 -4.13674 8.22403
RightShoulder  0.831565 0.551369 13.6375
RightArm  -16.6287 26.7837 31.5321
RightForeArm  50.3517 77.1422 51.9531
RightHand  -0.310083 8.9945 -2.87837
LeftUpLeg  5.21749 3.02722 4.13786
LeftLeg  -3.05937 30.6809 -1.93091
LeftFoot  0.374322 0.487321 -4.76701
LeftToes  4.7643e-008 1.47522e-008 1.32869e-009
175
root  -2.76918 40.9614 -0.849025 176.163 -74.3525 -176.709
RightUpLeg  2.03009 0.138326 1.53211
RightLeg  -3.00956 -9.21048 1.92142
RightFoot  1.8566 0.00469541 0.0689847
RightToes  -3.10678e-008 1.75238e-005 3.56266e-009
Spine  4.80909 -2.57915 -0.891082
Spine1  -3.2233 -2.98704 2.00299
HEad  -3.68968 6.23871 4.38972
LeftShoulder1  1.46526 -2.19241 -19.2084
LeftArm  -1.24732 6.5902 -33.2453
LeftForeArm  103.643 -79.981 -99.3157
LeftHand  -0.64879 -4.22593 8.10598
RightShoulder  0.865768 0.731871 13.5663
RightArm  -15.0911 30.7411 33.461
RightForeArm  52.1133 77.4974 54.3809
RightHand  -0.207892 8.45603 -2.12186
LeftUpLeg  5.37115 3.11751 4.21154
LeftLeg  -2.97996 30.4758 -1.94751
LeftFoot  0.34492 0.490713 -4.7999
LeftToes  4.7643e-008 1.47522e-008 1.32869e-009
176
root  -2.75799 40.9629 -0.917046 175.991 -74.935 -176.636
RightUpLeg  2.28453 0.083145 1.58976
RightLeg  -3.20289 -9.73098 2.03234
RightFoot  1.83402 0.0137751 -0.0108787
RightToes  -3.10678e-008 1.75238e-005 3.56266e-009
Spine  4.55278 -2.33901 -0.257715
Spine1  -2.76073 -2.59671 1.02867
HEad  -2.71687 5.34375 5.62693
LeftShoulder1  1.51609 -2.33653 -19.452
LeftArm  -0.803498 6.50749 -34.3003
LeftForeArm  104.739 -79.9795 -100.013
LeftHand  -0.648818 -4.27708 8.06792
RightShoulder  0.911269 1.00581 13.2928
RightArm  -14.5274 33.1043 34.8639
RightForeArm  52.4776 77.5528 54.7593
RightHand  -0.275706 8.80423 -2.63865
LeftUpLeg  5.39283 3.19766 4.3757
LeftLeg  -2.94004 29.7912 -1.94894
LeftFoot  0.37482 0.498758 -4.88465
LeftToes  4.7643e-008 1.47522e-008 1.32869e-009
177
root  -2.74268 40.9665 -1.00495 176.066 -75.9134 -176.619
RightUpLeg  2.34569 0.00549955 1.61523
RightLeg  -3.38627 -10.5995 2.20516
RightFoot  1.795 0.0343245 -0.191715
RightToes  -3.10678e-008 1.75238e-005 3.56266e-009
Spine  4.5359 -2.00554 -0.438271
Spine1  -2.93891 -2.24872 1.03473
HEad  -1.91852 4.50044 6.54964
LeftShoulder1  1.61122 -2.56863 -20.0788
LeftArm  -1.14149 6.26737 -34.773
LeftForeArm  105.668 -79.94 -101.07
LeftHand  -0.633343 -4.34036 7.8393
RightShoulder  0.823827 0.588848 13.2205
RightArm  -14.4099 34.3572 35.8517
RightForeArm  51.1895 77.3196 53.134
RightHand  -0.229198 8.74793 -2.2646
LeftUpLeg  5.15792 3.19681 4.49679
LeftLeg  -2.9615 28.8296 -1.92908
LeftFoot  0.510866 0.504966 -4.89396
LeftToes  4.7643e-008 1.47522e-008 1.32869e-009
178
root  -2.73815 40.9707 -1.07825 176.144 -77.1492 -176.551
RightUpLeg  2.38772 -0.208257 1.53836
RightLeg  -3.61171 -11.5561 2.51557
RightFoot  1.72544 0.0506358 -0.339038
RightToes  -3.10678e-008 1.75238e-005 3.56266e-009
Spine  4.16169 -2.07771 -0.462142
Spine1  -2.63132 -2.26577 0.687007
HEad  -1.18552 4.27128 7.08662
LeftShoulder1  1.56067 -2.41913 -19.8784
LeftArm  -1.96707 5.95044 -35.1532
LeftForeArm  106.519 -79.893 -102.134
LeftHand  -0.637391 -3.84886 8.26902
RightShoulder  0.853324 0.684217 13.4906
RightArm  -15.356 34.3996 35.531
RightForeArm  49.7635 77.0452 51.4018
RightHand  -0.218034 8.78464 -2.16844
LeftUpLeg  4.86081 3.02294 4.50007
LeftLeg  -3.05199 27.7937 -1.78574
LeftFoot  0.668975 0.527473 -5.05191
LeftToes  4.7643e-008 1.47522e-008 1.32869e-009
179
root  -2.73143 40.9728 -1.17389 175.987 -78.4046 -176.337
RightUpLeg  2.57567 -0.25642 1.60913
RightLeg  -3.92726 -12.7456 2.72578
RightFoot  1.7112 0.068382 -0.494318
RightToes  -3.10678e-008 1.75238e-005 3.56266e-009
Spine  3.87409 -2.09026 -1.01967
Spine1  -2.2542 -2.35102 1.1645
HEad  -0.856116 4.44441 7.24831
LeftShoulder1  1.55008 -2.41711 -19.6972
LeftArm  -2.66774 5.35676 -35.1364
LeftForeArm  104.772 -79.9173 -100.816
LeftHand  -0.652418 -4.10975 8.24228
RightShoulder  0.868339 0.741326 13.5793
RightArm  -16.7527 34.1364 35.0118
RightForeArm  48.08 76.7699 49.9581
RightHand  -0.244388 9.26473 -2.32473
LeftUpLeg  4.65092 2.93036 4.60253
LeftLeg  -3.10831 26.6338 -1.65619
LeftFoot  0.844172 0.556562 -5.26093
LeftToes  4.7643e-008 1.47522e-008 1.32869e-009
180
root  -2.74291 40.9718 -1.2657 175.669 -79.4761 -176.098
RightUpLeg  2.82173 -0.271831 1.70602
RightLeg  -4.04012 -13.8104 2.84371
RightFoot  1.57641 0.0692117 -0.52562
RightToes  -3.10678e-008 1.75238e-005 3.56266e-009
Spine  3.8475 -2.09657 -1.50454
Spine1  -2.15734 -2.43799 1.67507
HEad  -0.38937 3.82791 6.92745
LeftShoulder1  1.53602 -2.41218 -19.4632
LeftArm  -3.18978 4.94023 -35.1908
LeftForeArm  103.156 -79.9866 -98.9284
LeftHand  -0.632126 -3.94924 8.12334
RightShoulder  0.847625 0.603801 13.78
RightArm  -17.5107 33.9516 34.5689
RightForeArm  48.1991 76.8108 50.2256
RightHand  -0.206476 8.37998 -2.11691
LeftUpLeg  4.66961 2.95314 4.75893
LeftLeg  -3.23209 25.5504 -1.65177
LeftFoot  1.0158 0.577632 -5.39108
LeftToes  4.7643e-008 1.47522e-008 1.32869e-009
181
root  -2.76534 40.9703 -1.32291 175.604 -80.1762 -176.105
RightUpLeg  2.98923 -0.383009 1.69725
RightLeg  -4.04045 -14.3941 2.95459
RightFoot  1.44547 0.0781108 -0.661864
RightToes  -3.10678e-008 1.75238e-005 3.56266e-009
Spine  3.89964 -2.03818 -1.63163
Spine1  -2.15562 -2.40715 1.86485
HEad  -0.11401 3.83048 6.13166
LeftShoulder1  1.44306 -2.1044 -19.2124
LeftArm  -3.38632 5.24286 -35.1973
LeftForeArm  105.22 -79.9328 -100.901
LeftHand  -0.64563 -4.11865 8.15239
RightShoulder  0.864465 0.687673 13.7683
RightArm  -18.061 33.5043 34.345
RightForeArm  48.724 76.8989 50.6888
RightHand  -0.235739 8.69038 -2.32495
LeftUpLeg  4.70473 2.91927 4.79445
LeftLeg  -3.28137 24.8639 -1.59835
LeftFoot  1.08224 0.582224 -5.41123
LeftToes  4.7643e-008 1.47522e-008 1.32869e-009
182
root  -2.79914 40.9703 -1.38387 175.818 -80.7287 -176.361
RightUpLeg  3.16163 -0.461408 1.69177
RightLeg  -4.10629 -14.8816 3.01781
RightFoot  1.32795 0.0844655 -0.745687
RightToes  -3.10678e-008 1.75238e-005 3.56266e-009
Spine  3.90127 -1.99058 -1.7038
Spine1  -2.38137 -2.35089 1.89381
HEad  0.568542 3.97638 5.96007
LeftShoulder1  1.43289 -2.09301 -19.0675
LeftArm  -3.53126 5.63435 -35.4723
LeftForeArm  105.87 -79.9236 -101.389
LeftHand  -0.668312 -4.37721 8.22028
RightShoulder  0.90236 0.866344 13.7831
RightArm  -18.333 33.0298 34.4498
RightForeArm  49.5471 77.1252 52.207
RightHand  -0.185056 8.67145 -1.90991
LeftUpLeg  4.80903 2.88812 4.80555
LeftLeg  -3.47453 24.3552 -1.64869
LeftFoot  1.19135 0.581304 -5.36392
LeftToes  4.7643e-008 1.47522e-008 1.32869e-009
